<?xml version="1.0" standalone="no"?>
<!DOCTYPE svg PUBLIC "-//W3C//DTD SVG 20010904//EN"
 "http://www.w3.org/TR/2001/REC-SVG-20010904/DTD/svg10.dtd">
<svg version="1.0" xmlns="http://www.w3.org/2000/svg"
 width="800.000000pt" height="800.000000pt" viewBox="0 0 800.000000 800.000000"
 preserveAspectRatio="xMidYMid meet">
<metadata>
Created by potrace 1.11, written by Peter Selinger 2001-2013
</metadata>
<g transform="translate(0.000000,800.000000) scale(0.100000,-0.100000)"
fill="#000000" stroke="none">
<path d="M4626 7564 c-9 -8 -28 -14 -44 -13 -29 3 -55 -8 -48 -20 3 -4 0 -8
-7 -8 -25 -1 -42 -8 -58 -25 -9 -10 -20 -13 -28 -9 -8 5 -24 -2 -44 -20 -16
-15 -33 -28 -36 -27 -3 0 -8 -1 -11 -2 -8 -3 -44 -10 -62 -12 -9 -1 -24 -15
-33 -31 -10 -17 -22 -26 -31 -23 -9 3 -19 -4 -26 -19 -8 -19 -16 -24 -31 -19
-13 4 -17 2 -13 -5 4 -6 0 -11 -8 -11 -9 0 -15 -3 -15 -7 3 -21 -3 -32 -21
-38 -11 -3 -20 -15 -20 -26 0 -10 -4 -19 -9 -19 -5 0 -11 -9 -14 -21 -4 -17
-9 -19 -24 -10 -11 5 -25 6 -33 1 -9 -6 -18 -3 -27 8 -9 13 -12 13 -13 3 0 -9
-4 -10 -12 -4 -7 6 -21 11 -30 12 -10 1 -27 2 -38 3 -11 1 -20 5 -20 8 0 4
-10 6 -22 6 -13 -1 -22 4 -21 12 4 18 -8 15 -34 -10 -17 -16 -22 -18 -18 -6 5
13 0 16 -32 16 -21 0 -40 1 -43 2 -15 7 -90 6 -90 -1 0 -4 -9 -6 -20 -4 -11 2
-22 0 -25 -6 -4 -5 -13 -3 -21 6 -18 18 -34 20 -34 4 0 -7 -11 -8 -30 -4 -19
4 -30 3 -30 -4 0 -8 -8 -7 -22 2 -23 14 -107 16 -140 3 -10 -3 -26 -9 -35 -13
-10 -3 -24 -5 -30 -4 -7 1 -13 -4 -13 -12 0 -8 -9 -13 -22 -12 -13 1 -28 -2
-34 -6 -6 -5 -20 -10 -32 -12 -12 -2 -25 -6 -28 -10 -4 -4 -18 -7 -31 -7 -13
0 -23 -4 -23 -10 0 -5 -8 -10 -18 -10 -25 0 -72 -23 -72 -35 0 -5 -4 -4 -8 3
-6 9 -13 8 -28 -6 -10 -10 -27 -21 -37 -25 -13 -5 -17 -15 -14 -41 3 -28 -1
-39 -24 -59 -16 -13 -31 -22 -34 -19 -3 3 -5 0 -5 -6 0 -7 -3 -11 -7 -11 -22
4 -33 -2 -27 -13 5 -8 2 -9 -9 -5 -15 6 -22 -7 -19 -34 1 -4 -4 -6 -11 -5 -7
0 -14 -3 -17 -9 -2 -5 -17 -20 -32 -33 -15 -13 -25 -29 -22 -37 3 -7 -8 -28
-25 -46 -17 -17 -31 -37 -32 -43 -4 -75 -3 -94 5 -89 5 4 6 -4 3 -18 -7 -27
-19 -112 -21 -146 -1 -12 -5 -25 -9 -29 -4 -4 -2 -14 5 -21 7 -9 8 -17 2 -21
-13 -10 -13 -72 0 -72 6 0 4 -5 -4 -10 -12 -8 -12 -10 -1 -10 8 0 11 -7 8 -19
-3 -11 1 -22 8 -25 7 -2 11 -17 9 -32 -1 -15 2 -36 7 -47 6 -11 7 -23 2 -30
-10 -13 -10 -23 2 -52 24 -63 31 -75 44 -75 10 0 11 -3 2 -14 -10 -11 -9 -21
3 -45 15 -29 15 -31 -8 -55 -13 -15 -28 -26 -33 -26 -6 0 -16 -6 -22 -14 -7
-8 -20 -12 -29 -9 -12 3 -23 -5 -32 -21 -7 -14 -17 -26 -22 -26 -10 0 -48 -38
-47 -47 1 -22 -11 -43 -24 -43 -10 0 -14 -8 -13 -25 2 -13 -1 -22 -5 -19 -5 3
-9 -7 -9 -21 0 -14 -11 -37 -25 -50 -13 -14 -19 -25 -13 -25 9 0 9 -3 0 -12
-7 -7 -12 -22 -12 -35 0 -13 -5 -23 -11 -23 -6 0 -9 -6 -6 -13 3 -7 -4 -19
-15 -26 -11 -7 -17 -18 -14 -26 3 -8 0 -15 -6 -17 -6 -2 -12 -19 -13 -38 -2
-19 -9 -51 -16 -70 -13 -34 -14 -45 -6 -85 3 -11 1 -28 -4 -37 -5 -10 -5 -18
1 -20 6 -2 11 -24 12 -50 1 -27 6 -42 10 -35 5 8 8 4 8 -10 0 -13 6 -23 13
-23 8 0 7 -3 -3 -10 -13 -8 -13 -11 2 -22 9 -7 18 -20 20 -28 4 -21 20 -36 46
-44 19 -7 22 -13 18 -44 -2 -20 -7 -45 -11 -54 -4 -10 -3 -18 3 -18 17 0 18
-44 2 -57 -12 -11 -13 -14 -1 -22 11 -7 11 -9 0 -14 -8 -3 -4 -6 10 -6 14 -1
21 -6 19 -13 -5 -14 20 -41 43 -46 7 -2 16 -7 19 -10 3 -4 17 -13 32 -21 14
-7 29 -23 32 -35 5 -16 8 -18 15 -7 7 11 10 11 17 -2 5 -9 11 -15 14 -14 3 0
18 -7 33 -17 15 -11 30 -16 33 -13 4 3 16 -5 29 -19 24 -26 40 -32 30 -11 -4
6 1 3 10 -8 9 -11 18 -19 20 -17 3 1 6 2 8 1 18 -6 57 -2 57 6 0 5 4 4 9 -3 4
-8 11 -13 15 -13 3 1 7 1 9 0 21 -6 37 -5 37 3 0 6 6 5 15 -2 8 -7 15 -9 15
-6 0 4 7 1 15 -8 9 -8 22 -13 29 -10 9 3 17 -3 21 -16 4 -12 14 -20 23 -18 9
1 27 -4 40 -11 13 -7 30 -10 38 -7 8 3 14 1 14 -5 0 -6 7 -6 20 1 15 8 20 8
20 -1 0 -6 7 -9 15 -6 8 4 17 1 21 -4 3 -6 17 -9 30 -6 14 2 25 -1 28 -10 3
-8 11 -11 16 -8 6 4 22 0 35 -9 22 -15 25 -14 34 2 10 16 10 15 11 -3 0 -17 2
-17 10 -5 7 12 10 12 10 1 0 -7 6 -11 15 -7 8 3 19 -2 24 -12 6 -9 11 -12 11
-5 0 14 42 8 80 -10 16 -8 25 -21 24 -35 0 -16 5 -22 22 -22 17 0 22 -5 19
-20 -2 -12 3 -21 16 -25 10 -4 19 -14 19 -23 0 -14 2 -14 9 -3 7 11 11 10 20
-5 6 -11 11 -14 11 -9 0 6 4 4 8 -2 4 -7 21 -14 38 -16 16 -2 35 -7 42 -11 7
-4 12 -3 12 3 0 5 15 2 33 -7 17 -9 38 -17 45 -18 21 -4 27 -14 9 -14 -10 0
-17 -4 -17 -10 0 -5 -6 -7 -14 -4 -7 3 -21 -2 -29 -11 -9 -8 -20 -14 -24 -13
-12 4 -103 -35 -98 -42 2 -3 -6 -7 -18 -7 -12 -1 -23 -7 -25 -12 -2 -6 -19
-13 -38 -17 -19 -3 -34 -11 -34 -17 0 -8 -3 -8 -11 0 -7 7 -20 8 -34 3 -13 -5
-32 -6 -42 -4 -11 3 -26 0 -34 -8 -8 -7 -25 -13 -39 -13 -14 0 -31 -4 -37 -9
-9 -5 -13 -4 -13 4 0 10 -3 10 -15 0 -11 -9 -22 -9 -45 -2 -18 7 -32 7 -35 1
-4 -5 -11 -7 -16 -4 -5 4 -9 2 -9 -3 0 -10 -36 -9 -46 1 -4 4 -15 0 -25 -9
-13 -12 -19 -12 -25 -3 -5 8 -3 10 6 4 8 -5 11 -4 7 2 -6 10 -22 10 -82 -2
-21 -4 -26 -3 -15 4 10 7 0 9 -33 7 -26 -2 -51 -7 -55 -11 -4 -3 -2 -6 3 -5
24 5 37 -1 32 -14 -4 -9 0 -15 11 -15 31 0 54 -7 62 -22 5 -8 15 -14 22 -15
24 -2 48 -16 42 -25 -3 -5 3 -6 12 -2 13 5 15 3 9 -8 -4 -8 -5 -11 0 -7 4 4
17 2 29 -4 11 -7 27 -12 34 -13 7 0 16 -6 20 -12 4 -7 17 -14 27 -16 11 -1 26
-6 33 -10 7 -5 12 -3 12 3 0 8 6 8 20 0 11 -6 20 -9 20 -6 0 3 16 -2 35 -10
30 -12 34 -12 29 1 -5 13 -3 13 22 0 17 -9 32 -11 39 -5 6 5 17 5 25 0 7 -4
24 -4 37 1 12 5 23 5 23 0 0 -4 7 -8 15 -8 8 0 15 4 15 9 0 4 3 7 8 7 15 -3
73 14 78 22 3 5 10 7 15 4 5 -4 9 -1 9 4 0 6 10 11 23 11 12 0 32 7 43 15 12
8 24 12 27 8 3 -3 13 2 22 11 9 9 23 16 31 16 9 0 12 5 8 12 -5 7 -3 8 5 4 7
-5 21 0 33 11 11 10 22 17 24 16 2 -2 5 -3 7 -2 1 0 11 2 21 4 10 2 23 10 27
17 7 10 9 10 9 -2 0 -10 3 -11 11 -3 16 16 49 4 42 -14 -4 -9 1 -19 10 -25 20
-10 23 -32 5 -23 -7 4 -6 1 3 -7 21 -18 31 -48 16 -48 -7 0 -3 -7 7 -15 14
-10 15 -15 6 -15 -10 0 -11 -3 -3 -11 8 -8 9 -19 1 -38 -11 -30 -20 -69 -21
-91 0 -8 -4 -20 -9 -27 -5 -7 -6 -18 -2 -24 5 -8 3 -9 -6 -4 -9 6 -12 4 -8 -6
3 -8 0 -23 -7 -33 -8 -10 -11 -24 -8 -32 3 -8 0 -14 -7 -14 -6 0 -8 -5 -5 -10
9 -15 10 -93 2 -106 -3 -6 -4 -21 -2 -33 3 -15 0 -21 -8 -18 -9 3 -13 -8 -14
-35 -1 -22 -7 -46 -13 -54 -7 -7 -10 -21 -6 -29 3 -8 1 -15 -4 -15 -6 0 -10
-9 -10 -20 0 -11 -5 -20 -11 -20 -6 0 -9 -7 -5 -15 3 -8 1 -15 -4 -15 -5 0 -7
-7 -4 -15 4 -8 1 -21 -5 -29 -7 -8 -11 -18 -10 -22 2 -16 -13 -54 -22 -54 -4
0 -6 -10 -4 -22 4 -21 3 -21 -20 5 -13 16 -27 42 -30 59 -4 16 -13 32 -22 35
-8 3 -12 12 -9 20 4 9 -2 17 -14 20 -17 5 -20 11 -15 33 5 22 1 32 -17 44 -12
9 -19 16 -14 16 5 0 2 8 -6 18 -9 9 -18 26 -20 37 -2 11 -10 19 -17 17 -7 -1
-9 2 -6 8 4 6 -1 20 -10 30 -9 10 -14 24 -9 31 4 8 3 10 -4 5 -8 -5 -12 1 -12
14 0 12 -4 18 -10 15 -5 -3 -10 0 -10 8 0 8 -9 17 -20 20 -11 3 -20 9 -19 14
7 39 -39 43 -67 6 -16 -22 -52 -34 -39 -14 3 5 -4 16 -15 24 -11 7 -17 17 -13
20 3 4 -3 7 -15 7 -11 0 -24 5 -27 10 -4 6 -10 8 -15 5 -5 -3 -13 3 -19 12 -6
10 -11 14 -11 9 0 -5 -7 -3 -15 4 -12 10 -15 10 -16 -1 -1 -8 -4 -3 -8 11 -4
15 -15 26 -29 28 -12 2 -27 11 -34 21 -12 17 -33 28 -52 29 -5 0 -13 6 -17 14
-7 10 -9 10 -9 0 0 -7 -5 -10 -11 -6 -8 5 -10 -1 -7 -18 3 -18 1 -25 -9 -24
-18 3 -73 54 -73 67 0 6 -5 7 -10 4 -6 -4 -7 -11 -4 -17 4 -7 2 -8 -5 -4 -6 4
-9 11 -6 16 3 4 -6 11 -20 14 -14 4 -25 11 -25 16 0 6 -6 10 -14 10 -8 0 -16
5 -18 10 -4 14 -56 23 -85 15 -17 -4 -23 -13 -23 -32 l0 -27 -15 21 c-9 13
-22 20 -30 17 -8 -4 -15 -1 -15 5 0 6 -8 11 -18 11 -10 0 -26 6 -37 13 -32 22
-115 49 -129 44 -8 -3 -19 0 -26 6 -10 9 -14 9 -17 -1 -3 -6 -10 -9 -16 -5 -6
4 -8 0 -4 -10 4 -11 1 -17 -8 -17 -8 0 -15 -6 -15 -14 0 -24 -20 -29 -40 -11
-11 10 -28 15 -40 12 -14 -3 -20 0 -20 10 0 10 -6 14 -20 10 -11 -3 -20 -2
-20 3 0 4 -11 5 -25 2 -14 -2 -31 0 -38 6 -6 5 -40 9 -75 8 -34 0 -63 3 -65 8
-2 6 -11 6 -23 1 -10 -4 -24 -7 -31 -6 -16 2 -53 -30 -47 -41 3 -5 1 -15 -6
-23 -8 -10 -8 -15 1 -21 8 -5 9 -3 4 6 -5 9 -4 11 4 6 6 -4 9 -11 6 -16 -6 -9
-57 -6 -75 5 -17 11 -187 11 -225 0 -16 -5 -33 -9 -37 -9 -3 -1 -10 -5 -15
-10 -5 -5 -2 -6 7 -2 12 6 12 5 -1 -6 -18 -15 -21 -68 -4 -68 7 0 19 -8 29
-19 15 -17 15 -19 0 -31 -13 -11 -17 -11 -24 -1 -6 10 -10 9 -19 -5 -6 -11
-11 -14 -11 -9 0 6 -5 3 -10 -5 -7 -11 -10 -11 -10 -2 0 8 -5 10 -12 5 -7 -4
-24 -8 -38 -9 -14 -1 -27 -3 -30 -4 -3 -1 -9 -3 -15 -4 -25 -5 -52 -22 -81
-50 -25 -25 -29 -36 -23 -58 4 -15 4 -30 0 -34 -3 -4 -1 -4 6 0 6 3 14 2 18
-4 7 -11 -35 -31 -47 -23 -5 2 -8 -3 -8 -11 0 -11 -8 -14 -30 -11 -16 2 -30
-1 -30 -6 0 -6 -4 -8 -9 -4 -6 3 -14 -3 -20 -12 -6 -10 -11 -15 -11 -10 0 15
-59 -23 -65 -43 -3 -11 -9 -20 -13 -20 -4 0 -7 -11 -7 -25 0 -14 5 -25 10 -25
6 0 4 -4 -3 -9 -11 -7 -11 -11 2 -24 24 -23 20 -33 -14 -35 -55 -3 -61 -5 -56
-19 3 -7 -1 -14 -9 -14 -31 -3 -35 -4 -36 -14 0 -12 -41 -35 -51 -29 -4 2 -14
-6 -22 -18 -9 -12 -16 -18 -17 -13 0 6 -5 -1 -10 -14 -11 -27 7 -80 28 -82 22
-2 28 -4 41 -13 7 -4 19 -3 27 4 12 10 16 9 21 -4 4 -10 18 -16 39 -16 19 0
37 -5 41 -11 5 -8 9 -8 14 1 5 9 13 9 27 1 11 -5 23 -7 27 -4 3 3 6 2 6 -4 0
-6 -10 -17 -21 -25 -18 -11 -20 -20 -14 -46 4 -19 13 -32 22 -32 10 0 13 -6 9
-16 -5 -13 -2 -15 14 -11 11 3 20 2 20 -3 0 -4 16 -6 35 -4 24 2 33 -1 29 -9
-5 -9 -4 -9 6 0 8 7 20 9 35 3 14 -5 27 -4 34 3 8 8 11 8 11 -1 0 -14 36 -16
45 -2 3 6 11 10 17 10 6 0 1 -12 -13 -27 -13 -14 -19 -23 -12 -19 6 3 14 2 18
-4 3 -5 0 -10 -8 -10 -17 0 -11 -50 7 -51 6 0 19 -2 29 -4 11 -2 16 -1 13 3
-8 8 54 33 65 27 9 -6 50 14 61 29 4 6 12 5 21 -2 12 -10 16 -9 20 3 4 8 13
12 21 9 12 -4 13 -11 6 -24 -7 -14 -4 -20 17 -29 14 -6 28 -9 31 -6 3 3 -1 5
-8 5 -7 0 -10 3 -7 6 4 4 13 1 22 -6 12 -10 15 -10 15 0 0 10 3 10 14 1 11
-10 20 -10 38 0 33 18 148 21 148 3 0 -7 -4 -16 -10 -19 -5 -3 -10 -13 -10
-21 0 -8 5 -12 10 -9 6 3 10 -3 10 -14 0 -21 14 -28 24 -13 3 5 25 7 50 7 25
-1 43 1 41 5 -3 4 26 6 63 5 37 -1 73 2 79 7 7 6 24 8 38 6 14 -3 25 -1 25 3
0 5 5 9 11 9 8 0 9 -11 5 -31 -5 -24 -3 -30 8 -26 8 3 22 0 32 -8 14 -10 22
-10 36 -1 15 9 21 8 28 -4 9 -13 12 -13 24 3 10 13 25 18 48 16 18 -1 44 3 58
8 14 6 28 9 33 6 4 -2 7 0 7 5 0 5 11 12 24 14 24 5 49 -3 47 -16 -3 -20 1
-26 15 -26 9 0 12 5 8 13 -6 9 -4 9 7 -1 14 -13 83 -17 76 -4 -3 4 14 8 37 8
41 1 116 37 116 56 0 6 11 8 25 6 13 -3 22 -1 19 3 -3 5 2 9 10 9 9 0 16 -6
16 -13 0 -26 104 -45 136 -25 6 4 14 5 18 1 13 -13 57 -11 63 3 3 7 8 12 13 9
4 -2 17 6 30 20 13 14 28 21 38 18 10 -4 13 -2 8 5 -5 8 0 12 13 12 11 0 24 7
28 15 7 12 12 13 35 1 15 -8 29 -12 31 -9 3 2 18 5 34 7 15 1 39 8 52 15 15 8
27 9 33 3 6 -6 23 4 48 28 23 23 41 33 44 27 2 -7 5 -4 5 6 1 10 5 16 10 13 5
-4 11 0 14 6 3 10 8 10 17 2 9 -9 7 -15 -10 -27 -13 -9 -20 -22 -17 -30 3 -8
-1 -24 -9 -35 -9 -13 -12 -33 -9 -53 5 -25 3 -30 -9 -26 -14 6 -17 -16 -3 -29
3 -4 1 -16 -5 -28 -6 -11 -13 -34 -15 -50 -2 -16 -8 -34 -13 -41 -5 -7 -7 -15
-3 -19 10 -10 12 -36 3 -36 -5 0 -11 6 -14 13 -4 6 -4 -5 -2 -25 3 -21 0 -38
-5 -38 -6 0 -8 -22 -6 -52 2 -29 0 -66 -5 -83 -5 -16 -11 -64 -13 -105 -3 -41
-9 -76 -14 -78 -6 -2 -5 -15 1 -33 8 -22 7 -38 -2 -57 -7 -17 -8 -28 -2 -30 6
-2 9 -13 6 -26 -10 -58 -10 -146 0 -146 7 0 7 -3 1 -8 -15 -11 -18 -49 -4 -57
8 -6 7 -10 -2 -16 -11 -7 -12 -12 -2 -28 9 -15 10 -28 2 -48 -6 -15 -7 -29 -2
-30 9 -3 8 -116 -1 -132 -4 -5 -2 -12 2 -15 5 -3 8 -25 7 -48 -1 -24 3 -49 8
-55 5 -7 6 -13 1 -13 -5 0 -2 -5 6 -10 11 -7 11 -10 2 -10 -7 0 -10 -5 -7 -11
4 -5 9 -24 12 -41 3 -21 1 -28 -7 -23 -9 6 -9 2 0 -15 7 -12 10 -34 7 -49 -3
-14 -1 -35 3 -46 4 -11 3 -33 -1 -49 -6 -20 -5 -32 2 -37 7 -4 10 -18 7 -33
-3 -14 0 -27 6 -30 7 -3 6 -8 -3 -14 -13 -10 -6 -36 7 -28 4 2 8 -10 9 -27 5
-95 9 -118 19 -125 6 -4 14 -27 17 -52 3 -24 10 -46 14 -47 5 -2 7 -19 5 -38
-2 -20 0 -35 6 -35 11 0 13 -9 12 -72 0 -21 4 -38 10 -38 5 0 10 -13 10 -29 0
-16 7 -34 15 -41 8 -7 15 -20 15 -29 0 -11 9 -17 28 -19 15 -1 28 -7 30 -12 2
-6 10 -6 21 0 10 5 21 6 25 3 3 -3 6 -1 6 7 0 9 9 11 30 6 26 -5 32 -2 41 18
8 17 8 29 0 43 -5 11 -8 32 -6 46 3 14 -1 31 -7 39 -13 13 -19 41 -20 88 0 14
-3 27 -8 30 -4 3 -10 21 -13 41 -2 20 -8 42 -11 48 -4 6 -1 11 6 11 11 0 11 2
0 9 -7 4 -12 12 -11 17 4 23 -2 35 -13 28 -8 -5 -8 -1 1 10 10 12 11 20 4 24
-11 7 -20 58 -27 162 -3 36 -6 66 -7 68 0 1 -2 23 -4 50 -1 26 -5 57 -8 70 -3
13 -1 32 6 43 9 14 9 22 1 27 -6 4 -10 15 -8 25 1 9 -2 17 -7 17 -6 0 -7 5 -4
10 4 6 11 7 17 4 6 -4 5 2 -1 15 -7 12 -9 27 -5 33 5 7 3 8 -6 3 -9 -6 -10 -2
-5 16 11 33 14 98 5 104 -3 2 -4 27 0 55 5 39 3 53 -7 57 -18 7 -17 23 2 23
17 0 20 25 5 35 -12 8 -9 37 4 47 6 4 5 12 -2 20 -8 11 -8 21 3 41 9 19 10 29
3 33 -7 5 -8 2 -3 -6 5 -9 4 -11 -3 -6 -8 4 -8 15 -2 31 5 14 7 25 4 25 -4 0
0 8 7 17 12 14 12 15 0 9 -10 -7 -12 -4 -7 12 4 12 2 30 -3 41 -8 14 -8 22 -1
26 6 4 10 21 10 38 0 18 2 60 3 95 1 35 0 68 -4 74 -10 16 2 48 17 48 19 0 18
15 -3 47 -12 18 -13 24 -4 19 10 -7 12 -4 7 12 -4 11 -3 23 3 26 5 3 7 16 3
28 -4 15 -2 19 7 13 10 -6 11 -3 3 11 -7 13 -7 34 0 64 11 53 12 68 5 97 -3
13 -1 25 4 29 6 3 10 18 9 32 -1 15 -1 29 0 32 2 3 4 19 6 35 6 54 12 84 20
97 9 14 10 19 12 59 2 23 6 26 32 25 21 0 30 -6 30 -18 0 -9 7 -21 16 -26 8
-5 16 -15 18 -24 1 -8 15 -29 31 -45 50 -51 75 -83 65 -83 -5 0 -7 -7 -3 -16
3 -8 12 -13 21 -9 12 4 13 3 2 -10 -10 -12 -10 -15 4 -15 9 0 16 -4 16 -10 0
-21 47 -9 78 19 17 17 32 27 32 23 0 -4 7 1 15 12 13 18 15 17 31 -17 10 -20
21 -34 26 -31 4 3 8 -1 8 -8 0 -17 72 -98 88 -98 6 0 12 -4 12 -10 0 -5 7 -7
15 -4 8 4 15 1 15 -5 0 -6 3 -10 8 -10 4 1 12 0 17 -1 27 -6 41 -4 56 10 9 8
14 18 13 21 -2 4 4 13 13 20 15 12 16 12 10 -3 -4 -12 0 -19 13 -23 11 -4 23
-18 26 -32 4 -15 9 -20 14 -13 4 7 19 -1 42 -24 26 -26 38 -32 47 -23 8 8 11
7 11 -5 0 -9 7 -19 16 -22 8 -3 13 -10 10 -15 -3 -5 3 -7 14 -4 14 4 20 1 18
-8 -2 -7 3 -14 10 -15 6 -1 15 -3 20 -4 4 -1 10 -2 15 -1 4 0 7 -3 7 -8 0 -12
60 -20 66 -9 4 5 12 7 19 5 8 -4 11 5 9 29 -1 19 2 36 7 40 5 3 6 11 2 17 -4
7 8 -1 26 -18 18 -16 43 -40 56 -51 13 -12 50 -35 82 -50 32 -16 63 -33 69
-39 16 -15 120 -13 117 3 -2 6 2 12 7 12 6 0 10 13 10 29 0 32 14 48 26 30 5
-8 3 -9 -6 -4 -9 6 -11 4 -6 -4 5 -7 14 -10 22 -7 8 3 14 -1 14 -9 0 -18 36
-56 44 -48 3 4 6 1 6 -5 0 -7 8 -12 17 -12 9 0 14 -3 10 -6 -8 -8 18 -34 35
-34 7 0 18 -8 25 -19 16 -25 99 -25 97 1 -1 10 2 15 7 12 5 -3 9 6 9 20 0 33
13 33 30 1 7 -13 18 -23 24 -22 6 1 10 -4 9 -10 -2 -7 3 -13 10 -13 7 0 29 -9
50 -20 20 -11 37 -17 37 -13 0 5 4 2 8 -5 12 -19 66 3 58 23 -8 22 29 39 44
20 7 -8 21 -15 32 -15 10 0 17 -4 13 -9 -3 -6 10 -13 29 -17 20 -3 40 -12 47
-20 6 -8 18 -14 26 -14 8 0 21 -7 29 -15 17 -17 54 -20 54 -5 0 6 6 10 14 10
22 0 46 29 46 55 0 26 26 41 34 19 3 -8 13 -14 22 -14 9 0 23 -8 30 -17 8 -11
13 -13 14 -6 0 7 6 10 13 8 14 -6 107 -16 155 -17 21 0 38 6 47 18 18 24 19
38 3 28 -10 -6 -10 -5 -1 8 7 8 10 18 7 21 -8 8 48 1 97 -11 21 -5 42 -6 49
-2 6 4 28 6 48 6 42 -3 84 27 55 39 -14 5 -14 7 -1 18 25 20 29 56 7 75 -11 9
-19 29 -19 46 0 16 -3 27 -6 24 -3 -3 -16 4 -30 17 -25 23 -33 42 -12 29 7 -5
8 -3 4 5 -5 7 -19 16 -32 21 -15 6 -24 18 -24 30 0 14 -4 19 -12 15 -7 -4 -5
0 6 9 16 13 20 13 33 0 32 -32 85 3 58 39 -6 9 -15 14 -18 10 -4 -3 -7 1 -7
10 0 9 5 19 12 23 8 5 6 10 -8 15 -18 7 -18 8 1 9 18 1 17 2 -5 15 -14 8 -22
14 -19 15 4 0 -9 16 -28 36 -19 20 -32 43 -29 50 4 10 -2 14 -18 14 -30 0 -83
64 -64 77 7 4 20 8 28 8 53 5 53 4 40 20 -9 11 -9 15 -1 15 7 0 3 10 -9 22
-11 12 -20 25 -20 28 0 3 -20 21 -45 38 -26 18 -43 37 -40 42 3 6 -1 7 -9 4
-9 -3 -23 2 -32 11 -9 9 -23 14 -30 11 -8 -3 -14 -1 -14 5 0 6 -6 7 -12 3 -8
-5 -7 0 2 11 8 10 10 16 3 12 -7 -4 -23 -5 -37 -1 -28 7 -44 33 -18 30 9 -2
21 2 28 8 13 12 7 39 -7 30 -5 -3 -9 -2 -8 3 3 19 -2 46 -7 40 -4 -3 -18 3
-32 13 -13 11 -31 20 -38 20 -8 0 -14 5 -14 11 0 5 -5 7 -10 4 -6 -4 -8 -10
-6 -14 3 -4 -4 -8 -15 -8 -10 -1 -19 3 -19 9 0 5 -7 8 -15 5 -8 -4 -17 -1 -21
5 -5 7 -2 8 6 3 9 -5 11 -4 6 3 -4 7 -19 10 -34 8 -15 -3 -43 -2 -62 2 -34 8
-35 9 -35 57 0 46 -1 49 -30 52 -16 3 -33 10 -37 16 -4 6 -10 8 -14 5 -4 -4
-15 -3 -25 2 -10 6 -29 11 -42 12 -15 1 -23 7 -20 14 3 10 -23 12 -110 11 -63
-1 -113 1 -110 5 2 5 -2 8 -9 8 -10 1 -9 4 2 13 25 20 23 44 -5 51 -14 4 -30
4 -35 1 -6 -4 -10 -1 -10 5 0 7 -7 10 -15 6 -8 -3 -15 -1 -15 5 0 6 -6 7 -12
2 -20 -12 -41 -13 -55 -1 -9 7 -17 7 -28 -2 -8 -6 -19 -9 -25 -5 -5 3 -10 0
-10 -7 0 -9 -2 -10 -8 -2 -5 8 -22 9 -57 3 -27 -5 -66 -12 -85 -15 -19 -3 -52
-14 -73 -24 -20 -10 -35 -14 -31 -9 3 5 1 9 -5 9 -5 0 -13 -4 -16 -10 -4 -6
-11 -5 -20 3 -9 8 -10 16 -3 24 7 9 6 14 -3 17 -8 2 -22 7 -33 10 -10 4 -26 1
-34 -6 -12 -10 -14 -10 -8 0 4 6 3 12 -2 12 -6 0 -13 -7 -16 -16 -3 -9 -13
-14 -21 -10 -8 3 -17 1 -21 -5 -3 -6 -13 -8 -21 -5 -8 4 -30 -3 -48 -14 -17
-11 -35 -17 -38 -14 -3 4 -27 -3 -52 -15 -47 -22 -77 -21 -102 5 -11 10 -18
10 -41 -2 -15 -7 -35 -14 -44 -14 -9 0 -20 -5 -24 -11 -5 -8 -9 -7 -14 1 -6
10 -15 6 -33 -13 -13 -15 -31 -27 -39 -27 -8 0 -25 -10 -38 -22 -14 -13 -29
-22 -34 -20 -4 2 -6 -4 -3 -12 4 -9 -3 -17 -16 -21 -42 -14 -57 -15 -57 -5 0
6 5 10 11 10 8 0 8 4 0 14 -9 11 -9 15 0 18 25 8 -2 26 -41 26 -30 1 -44 -5
-59 -24 -18 -23 -39 -34 -26 -14 3 6 -1 10 -10 10 -10 0 -13 -5 -9 -12 5 -7 2
-9 -8 -5 -20 7 -38 -11 -31 -32 3 -9 1 -12 -4 -6 -11 13 -36 18 -28 6 7 -12
-29 -33 -40 -23 -4 4 -4 -4 -1 -18 5 -16 4 -20 -2 -12 -7 11 -12 10 -26 -3 -9
-10 -20 -15 -23 -12 -9 10 -43 -12 -43 -28 0 -17 -56 -49 -64 -37 -11 17 -14
62 -5 62 5 0 14 11 19 25 5 14 14 25 20 25 12 0 9 22 -5 32 -5 4 2 11 15 17
14 5 18 10 10 11 -12 0 -12 3 2 14 11 8 16 22 13 36 -3 16 3 32 17 47 15 16
17 23 8 23 -9 0 -8 4 5 13 10 8 15 19 11 26 -4 6 -1 14 7 17 9 3 18 16 21 30
4 13 11 24 17 24 6 0 7 5 4 10 -4 6 -12 7 -18 3 -7 -3 -4 3 6 14 9 11 17 25
17 31 0 6 9 27 19 46 11 19 17 37 14 40 -4 3 2 6 11 6 12 0 16 5 12 15 -3 8
-1 15 5 15 6 0 7 6 3 13 -6 8 -3 8 9 -1 14 -12 16 -11 12 6 -2 14 9 30 35 51
43 35 55 39 46 15 -3 -8 -2 -12 4 -9 9 6 15 -8 11 -29 -1 -5 5 -6 14 -3 13 6
20 -4 16 -25 0 -5 10 -8 23 -8 14 0 32 -10 40 -22 9 -12 19 -19 22 -15 4 4 13
2 20 -4 8 -6 21 -9 29 -5 9 3 14 2 11 -3 -3 -5 8 -14 26 -20 40 -14 51 -14 43
2 -4 6 0 5 7 -5 8 -9 27 -18 43 -21 17 -3 35 -6 40 -7 6 -1 15 -1 20 0 19 6
145 5 145 -1 0 -3 6 -6 14 -6 8 0 12 6 9 13 -3 8 7 11 36 10 23 -1 37 2 34 8
-4 5 3 7 15 4 12 -4 25 -1 30 5 10 17 49 37 70 37 10 0 19 7 19 15 0 8 -4 15
-9 15 -5 0 -19 9 -31 20 -46 43 -92 80 -99 80 -5 0 -8 7 -8 16 0 8 -4 12 -10
9 -6 -3 -10 -2 -10 3 0 5 -12 14 -26 20 -15 7 -22 17 -18 24 5 7 2 9 -9 5 -12
-4 -14 -2 -10 10 4 11 2 14 -5 9 -6 -4 -17 5 -26 21 -8 15 -17 27 -20 26 -14
-6 -26 -2 -26 8 0 7 11 9 30 6 16 -4 32 -3 34 2 3 5 19 7 35 5 21 -2 36 3 53
21 21 23 45 35 35 18 -3 -5 11 -8 31 -7 23 1 42 -5 50 -15 12 -14 13 -14 8 3
-5 16 -4 17 8 7 8 -7 34 -12 58 -12 24 0 52 1 63 1 11 0 42 0 69 1 30 0 52 -5
57 -13 7 -10 14 -10 38 4 22 12 31 13 35 5 4 -9 8 -9 11 -1 3 6 16 9 29 7 13
-3 27 0 31 7 5 8 10 8 21 -1 11 -9 15 -8 20 5 3 9 10 14 14 11 5 -3 11 -1 15
5 3 5 15 10 26 10 11 0 22 7 26 16 3 8 11 13 18 10 22 -8 24 31 4 50 -10 9
-19 14 -19 10 0 -4 -7 0 -16 8 -8 9 -21 13 -27 9 -18 -11 -41 -9 -55 5 -7 6
-22 12 -33 12 -11 0 -19 7 -19 18 0 10 -3 13 -8 7 -4 -6 -13 -10 -19 -9 -7 1
-25 2 -40 3 -23 1 -25 3 -12 11 9 5 25 11 35 13 11 2 26 6 34 9 8 3 33 11 55
18 43 14 64 34 65 62 0 9 7 21 16 26 14 8 21 26 23 59 1 7 6 12 13 10 16 -3
17 21 3 58 -15 37 -8 51 58 117 26 27 45 53 42 58 -3 6 -1 10 5 10 6 0 8 5 5
10 -3 6 -2 10 4 10 5 0 13 10 16 21 6 17 9 19 16 8 7 -12 9 -12 9 0 0 7 6 11
15 7 9 -3 15 0 15 10 0 8 4 13 9 9 5 -3 12 -1 16 5 3 5 11 10 16 10 6 0 7 -5
4 -10 -7 -12 17 -9 26 3 3 4 17 9 30 11 14 1 30 6 37 10 7 4 12 2 12 -5 0 -6
11 0 25 14 15 15 33 23 44 20 10 -2 31 6 47 20 16 13 41 27 57 31 15 3 27 13
27 21 0 8 6 15 14 15 8 0 17 7 20 16 3 8 10 13 15 10 5 -3 11 4 14 16 4 12 9
19 12 16 4 -3 16 4 29 16 12 11 33 28 45 36 13 8 36 25 51 38 15 12 36 22 47
22 10 0 24 9 31 20 7 11 18 17 27 14 10 -4 15 0 15 10 0 9 9 24 19 33 11 9 18
20 15 25 -3 4 2 5 10 2 11 -4 16 0 16 14 0 11 8 28 17 38 11 10 16 29 14 46
-1 15 2 28 7 28 5 0 9 6 9 13 1 6 4 34 7 61 6 39 4 50 -11 61 -17 12 -16 15 8
38 15 13 30 34 34 46 5 18 9 20 21 10 12 -10 13 -9 8 5 -4 9 -1 16 6 16 28 0
63 41 65 76 0 19 -2 37 -7 40 -4 3 -8 10 -8 15 0 6 4 8 9 4 6 -3 9 4 8 15 -1
11 -7 20 -15 20 -7 0 -10 5 -7 11 4 5 0 18 -9 28 -9 10 -17 30 -18 44 -1 15
-8 27 -15 27 -14 0 -27 35 -18 50 3 5 0 10 -9 10 -8 0 -17 13 -21 30 -4 17
-13 30 -22 30 -8 0 -17 9 -20 20 -5 18 -15 24 -36 21 -4 0 -6 2 -5 6 2 5 -1
10 -7 12 -15 5 -36 38 -40 62 -3 12 -11 29 -18 38 -8 9 -12 22 -10 29 3 6 -2
12 -11 12 -13 0 -21 12 -14 23 6 8 -26 47 -39 47 -9 0 -14 3 -10 6 3 3 -5 18
-19 33 -14 14 -27 36 -30 48 -4 13 -10 21 -14 18 -4 -3 -10 2 -14 10 -3 9 -12
12 -23 9 -14 -5 -15 -4 -4 4 15 11 2 47 -15 40 -5 -1 -10 9 -12 25 -2 15 -8
25 -13 22 -5 -4 -9 -1 -9 5 0 6 -4 8 -10 5 -5 -3 -10 1 -10 9 0 8 -9 21 -19
28 -20 14 -22 32 -7 56 4 7 2 19 -5 28 -8 9 -9 18 -3 22 15 11 13 42 -2 42
-12 0 -11 5 3 27 13 20 14 28 5 31 -10 3 -10 7 0 20 7 9 8 13 2 9 -8 -4 -11
19 -10 78 0 48 5 85 10 85 5 0 2 6 -9 13 -10 8 -15 18 -12 23 3 6 2 16 -3 24
-5 9 -5 19 2 27 7 9 7 18 -3 30 -12 14 -12 15 0 9 9 -6 8 0 -4 17 -9 15 -14
31 -11 36 4 5 1 13 -5 17 -8 5 -9 3 -4 -6 5 -9 4 -11 -3 -6 -7 4 -12 16 -12
26 0 26 -32 80 -48 80 -7 0 -11 4 -8 9 3 5 -5 16 -19 25 -16 10 -25 12 -25 5
0 -6 -8 -2 -17 10 -10 12 -29 23 -43 26 -13 3 -39 12 -58 21 -18 8 -50 18 -70
21 -20 3 -45 10 -55 15 -10 5 -28 11 -40 14 -22 4 -58 12 -87 19 -8 2 -15 4
-15 5 0 1 -12 3 -27 4 -16 2 -28 -1 -28 -5 0 -5 -11 -4 -24 1 -15 5 -27 5 -35
-3 -8 -8 -11 -7 -11 5 0 11 -7 16 -20 13 -11 -2 -20 2 -20 8 0 7 -5 4 -11 -6
-8 -14 -14 -15 -24 -7 -7 6 -25 8 -40 4 -20 -5 -23 -9 -13 -15 10 -7 9 -9 -5
-9 -22 0 -47 23 -47 44 0 8 -5 18 -12 22 -7 4 -8 3 -4 -4 4 -8 2 -10 -8 -6 -8
3 -13 11 -10 18 3 7 -4 20 -15 30 -11 10 -18 23 -14 29 4 6 0 8 -10 4 -9 -3
-18 0 -21 9 -3 9 -10 13 -15 10 -5 -3 -11 3 -14 14 -3 11 -12 20 -20 20 -8 0
-17 9 -20 21 -4 13 -10 18 -17 14 -7 -4 -15 -3 -19 2 -3 6 -26 20 -51 31 -33
15 -50 18 -68 11 -20 -8 -23 -7 -19 5 5 12 1 13 -19 5 -14 -5 -29 -7 -34 -4
-5 3 -11 1 -15 -4 -13 -23 -99 22 -90 47 3 7 0 10 -5 7 -6 -3 -22 7 -38 23
-21 22 -37 29 -72 31 -25 2 -48 5 -52 7 -3 2 -14 -3 -22 -12z m984 -370 c0 -8
-19 -13 -24 -6 -3 5 1 9 9 9 8 0 15 -2 15 -3z m-1590 -4179 c0 -8 -7 -15 -15
-15 -16 0 -20 12 -8 23 11 12 23 8 23 -8z"/>
<path d="M1155 2881 c-3 -5 -1 -12 5 -16 5 -3 10 1 10 9 0 18 -6 21 -15 7z"/>
</g>
</svg>
