<?xml version="1.0" standalone="no"?>
<!DOCTYPE svg PUBLIC "-//W3C//DTD SVG 20010904//EN"
 "http://www.w3.org/TR/2001/REC-SVG-20010904/DTD/svg10.dtd">
<svg version="1.0" xmlns="http://www.w3.org/2000/svg"
 width="514.000000pt" height="514.000000pt" viewBox="0 0 514.000000 514.000000"
 preserveAspectRatio="xMidYMid meet">
<metadata>
Created by potrace 1.11, written by Peter Selinger 2001-2013
</metadata>
<g transform="translate(0.000000,514.000000) scale(0.100000,-0.100000)"
fill="#000000" stroke="none">
<path d="M2823 5105 c-110 -25 -265 -83 -325 -121 -21 -13 -40 -24 -42 -24 -3
0 -35 -21 -71 -46 -184 -129 -308 -289 -370 -479 -36 -110 -63 -297 -63 -433
-1 -123 14 -190 47 -226 38 -41 25 -79 -35 -105 -33 -15 -41 -15 -49 -4 -15
21 -50 4 -123 -57 -126 -104 -233 -296 -288 -516 -19 -75 -34 -144 -34 -155 0
-10 -6 -19 -12 -19 -7 0 -23 -15 -35 -33 -38 -57 -121 -240 -133 -295 -12 -50
-69 -132 -92 -132 -29 0 -105 -135 -168 -296 -17 -43 -36 -90 -43 -103 -13
-27 -16 -156 -5 -213 9 -44 61 -196 78 -228 6 -12 13 -30 15 -40 5 -25 58
-130 88 -174 36 -53 24 -102 -37 -159 -48 -46 -58 -77 -35 -119 33 -61 1 -201
-59 -258 -29 -27 -136 -83 -160 -83 -8 0 -12 -10 -10 -26 3 -23 8 -26 44 -29
32 -2 43 -8 47 -23 4 -13 0 -22 -11 -25 -55 -17 -64 -24 -52 -39 8 -10 29 -14
65 -12 61 2 74 -6 57 -33 -10 -17 -9 -20 5 -21 24 -2 23 -2 68 5 73 10 100 17
142 36 48 21 46 22 69 -46 21 -62 63 -123 111 -164 40 -32 127 -63 166 -58 12
1 40 -6 62 -16 21 -11 58 -21 81 -24 40 -4 43 -3 59 32 18 38 19 38 70 0 65
-47 118 -67 198 -73 4 -1 7 -9 7 -18 1 -29 39 -106 68 -136 39 -41 76 -58 156
-70 93 -13 147 -11 192 8 27 11 65 15 133 13 55 -1 104 3 115 9 16 9 27 6 55
-12 20 -13 50 -27 66 -31 17 -4 33 -11 36 -17 11 -15 47 2 69 33 12 16 24 52
27 80 3 27 10 50 16 50 5 0 25 -10 44 -21 39 -24 102 -22 132 5 17 16 88 19
97 5 6 -10 33 -1 57 19 15 13 23 13 58 2 23 -8 43 -20 46 -27 9 -24 42 -13 68
22 64 83 14 164 -160 260 -68 37 -147 94 -165 119 -44 60 -62 207 -40 326 4
25 11 65 14 89 3 24 8 46 10 49 3 2 -2 22 -11 44 -8 21 -14 41 -12 43 5 4 39
11 99 21 19 3 69 14 110 25 41 11 83 21 92 24 178 41 281 288 228 547 -20 97
-79 216 -152 309 -15 19 -71 90 -126 159 -105 134 -157 185 -208 206 -33 14
-47 34 -36 51 4 5 28 24 53 41 158 107 234 250 234 442 0 187 -76 367 -242
573 -29 37 -49 67 -43 67 30 0 172 92 225 146 116 117 247 403 270 589 4 28 9
58 11 67 9 31 6 211 -5 284 -22 151 -87 304 -133 312 -159 27 -331 -13 -345
-81 -8 -38 -20 -42 -28 -9 -3 16 -23 56 -43 88 -20 33 -38 73 -38 91 -3 69
-50 77 -221 38z m-1292 -4695 l24 -21 -32 16 c-32 15 -42 25 -24 25 5 0 19 -9
32 -20z"/>
<path d="M3860 2828 c-228 -34 -391 -71 -425 -94 -18 -13 -11 -14 55 -9 41 3
86 7 100 9 14 2 52 7 85 11 33 3 76 10 95 15 19 5 76 12 125 15 103 7 137 11
219 27 48 9 55 13 40 21 -23 13 -219 16 -294 5z"/>
<path d="M3477 2633 c-80 -26 -94 -47 -22 -34 103 19 456 -4 595 -39 36 -9 65
-14 155 -26 28 -3 56 -11 63 -16 8 -7 12 -7 12 0 0 22 -136 72 -277 100 -124
26 -189 33 -333 37 -102 3 -124 0 -193 -22z"/>
<path d="M3421 2531 c-11 -7 -6 -12 20 -19 68 -20 254 -104 348 -157 80 -45
163 -75 209 -75 27 0 -260 170 -374 221 -70 32 -175 47 -203 30z"/>
</g>
</svg>
