<?xml version="1.0" standalone="no"?>
<!DOCTYPE svg PUBLIC "-//W3C//DTD SVG 20010904//EN"
 "http://www.w3.org/TR/2001/REC-SVG-20010904/DTD/svg10.dtd">
<svg version="1.0" xmlns="http://www.w3.org/2000/svg"
 width="512.000000pt" height="512.000000pt" viewBox="0 0 512.000000 512.000000"
 preserveAspectRatio="xMidYMid meet">
<metadata>
Created by potrace 1.11, written by Peter Selinger 2001-2013
</metadata>
<g transform="translate(0.000000,512.000000) scale(0.100000,-0.100000)"
fill="#000000" stroke="none">
<path d="M3740 5094 c-146 -33 -248 -68 -367 -124 -257 -122 -406 -264 -530
-508 -80 -158 -105 -245 -104 -367 0 -55 4 -114 10 -132 10 -34 6 -43 -17 -43
-54 0 -276 -145 -358 -234 -107 -116 -254 -373 -294 -514 -22 -80 -26 -85
-113 -175 l-89 -92 36 58 c53 84 48 104 -17 70 -55 -28 -85 -55 -134 -117 -26
-34 -50 -63 -53 -66 -4 -3 -46 -61 -95 -130 -49 -69 -103 -143 -121 -165 -48
-61 -123 -204 -196 -375 -93 -218 -110 -291 -110 -471 1 -157 51 -338 104
-373 30 -19 62 -73 49 -81 -14 -8 -3 -32 48 -102 101 -136 133 -175 156 -185
28 -12 50 -67 40 -99 l-7 -21 -21 20 c-12 12 -44 26 -72 33 -27 6 -66 20 -86
30 -22 11 -62 19 -105 20 -45 1 -100 12 -159 31 -78 26 -101 30 -171 26 -99
-5 -139 -26 -239 -125 -39 -39 -79 -75 -90 -80 -16 -9 -17 -15 -8 -36 9 -20 8
-30 -6 -53 -21 -35 -16 -62 36 -174 19 -41 44 -97 54 -124 25 -61 90 -174 126
-217 33 -39 95 -68 146 -69 21 0 66 10 100 21 34 12 75 23 91 26 16 3 40 9 53
14 18 6 23 5 23 -6 0 -34 56 -10 80 35 19 34 21 50 10 87 -10 37 -5 39 50 22
19 -5 43 -12 54 -14 10 -3 42 -11 70 -19 28 -8 85 -16 126 -17 41 -1 102 -9
135 -18 54 -15 60 -19 66 -48 8 -43 45 -112 77 -146 59 -62 156 -85 204 -48
14 11 35 19 46 16 11 -2 26 3 33 11 6 8 21 14 32 14 23 0 163 66 173 81 3 5
15 7 27 3 36 -11 111 -7 169 10 152 44 285 206 318 385 14 77 11 215 -7 292
-7 30 -29 100 -48 154 -29 79 -36 112 -34 160 2 58 15 95 32 95 5 0 7 -7 4
-15 -4 -8 -3 -16 1 -19 10 -6 88 29 106 47 7 7 43 37 79 66 36 29 71 66 78 83
6 16 28 42 47 58 43 36 54 30 90 -50 46 -103 54 -166 58 -460 1 -151 5 -284 8
-295 3 -11 8 -47 11 -80 18 -194 73 -300 170 -327 65 -18 286 -12 472 12 40 5
79 7 88 4 8 -4 21 -2 28 4 6 6 37 13 67 16 39 5 51 4 40 -3 -24 -17 21 -14 63
4 133 55 150 230 27 279 -57 23 -356 38 -408 22 -16 -6 -29 -2 -43 10 -23 21
-24 34 -4 34 18 0 20 33 3 63 -13 25 -20 95 -22 247 -1 92 2 109 21 140 12 19
31 59 42 88 12 29 30 65 41 80 11 15 40 77 65 137 25 61 50 120 57 132 6 12
12 39 13 60 1 21 5 72 9 113 6 62 4 85 -13 132 -11 32 -17 59 -13 61 14 8 69
19 112 22 70 5 148 41 222 101 92 74 122 137 120 249 -1 90 -88 255 -144 274
-16 6 -46 23 -66 39 -40 30 -182 102 -202 102 -20 0 -133 60 -153 81 -9 10
-24 16 -32 13 -26 -10 -16 11 13 28 132 79 213 219 215 373 3 192 -40 297
-181 443 -31 32 -52 63 -52 76 0 37 93 129 220 216 203 139 295 256 365 463
31 94 36 158 17 267 -15 94 -21 240 -9 240 4 0 7 5 7 11 0 8 -25 10 -87 6
-129 -8 -200 -34 -453 -164 -3 -2 -5 40 -4 93 2 99 -13 185 -42 252 -10 20
-16 40 -16 45 3 12 -49 6 -158 -19z"/>
</g>
</svg>
