<?xml version="1.0" standalone="no"?>
<!DOCTYPE svg PUBLIC "-//W3C//DTD SVG 20010904//EN"
 "http://www.w3.org/TR/2001/REC-SVG-20010904/DTD/svg10.dtd">
<svg version="1.0" xmlns="http://www.w3.org/2000/svg"
 width="424.000000pt" height="424.000000pt" viewBox="0 0 424.000000 424.000000"
 preserveAspectRatio="xMidYMid meet">
<metadata>
Created by potrace 1.11, written by Peter Selinger 2001-2013
</metadata>
<g transform="translate(0.000000,424.000000) scale(0.100000,-0.100000)"
fill="#000000" stroke="none">
<path d="M4 4225 c-9 -23 24 -68 79 -108 127 -94 476 -240 647 -271 14 -2 61
-12 105 -21 106 -22 103 -22 155 -30 69 -10 91 -13 145 -19 28 -3 73 -8 100
-11 93 -10 258 -15 600 -20 339 -5 529 -11 615 -20 25 -2 72 -7 105 -10 33 -3
71 -7 85 -10 106 -20 193 -25 207 -12 13 14 -25 35 -75 41 -86 11 -136 16
-227 22 -49 3 -108 8 -130 10 -22 1 -222 5 -445 8 -491 6 -697 14 -830 31 -19
2 -57 7 -85 10 -27 4 -57 8 -65 10 -8 3 -33 7 -55 10 -52 6 -62 9 -180 39
-208 53 -418 146 -543 240 -149 113 -198 139 -208 111z"/>
<path d="M3448 3735 c-2 -2 -30 -5 -64 -8 -62 -6 -114 -23 -114 -39 0 -23 69
-26 285 -13 72 5 204 7 295 6 91 -2 215 -3 275 -4 90 -2 110 1 110 12 0 12
-20 15 -95 17 -52 1 -147 5 -210 8 -332 18 -478 24 -482 21z"/>
<path d="M3262 3619 c-1 -53 -47 -109 -110 -136 -145 -62 -286 -2 -306 131 -6
41 -26 28 -26 -17 0 -56 29 -101 93 -144 144 -97 367 -6 367 150 0 44 -17 58
-18 16z"/>
<path d="M1428 3230 c-112 -41 -196 -95 -278 -180 -182 -185 -230 -411 -137
-650 23 -59 52 -115 74 -141 12 -15 6 -23 -54 -70 -37 -29 -75 -62 -85 -74 -9
-11 -34 -40 -57 -65 -57 -63 -133 -175 -161 -238 l-24 -53 -65 8 c-131 15
-346 7 -383 -14 -20 -12 -14 -13 52 -8 126 10 267 6 345 -10 11 -2 25 -4 30
-4 6 -1 9 -20 7 -44 l-4 -42 -116 1 c-64 1 -153 -5 -197 -12 -79 -14 -249 -63
-241 -71 2 -2 43 5 92 16 141 31 247 44 364 43 98 0 100 0 110 -29 6 -16 17
-40 25 -55 8 -14 15 -28 15 -31 0 -5 -74 -23 -130 -33 -70 -12 -289 -98 -278
-109 2 -3 44 8 94 24 137 45 226 70 284 81 53 10 54 10 85 -22 18 -18 56 -56
86 -85 30 -28 78 -77 108 -107 l54 -55 -26 -26 c-14 -15 -28 -43 -32 -66 -4
-21 -11 -37 -16 -34 -4 3 -17 -4 -27 -17 -11 -13 -57 -68 -102 -123 -46 -55
-86 -102 -90 -105 -3 -3 -31 -36 -62 -75 -151 -190 -176 -314 -109 -561 20
-73 69 -134 129 -161 135 -60 274 -19 411 120 l73 74 85 -34 c90 -37 281 -83
410 -98 26 -3 59 -8 73 -11 14 -2 36 -6 50 -9 14 -2 46 -10 72 -16 105 -25
268 -15 371 23 41 15 72 35 109 74 29 30 57 54 63 54 16 0 79 70 100 111 30
56 43 123 43 216 1 149 -73 339 -205 526 -55 78 -162 196 -179 198 -19 1 -46
8 -50 11 -2 2 -8 36 -14 75 -7 56 -7 79 4 105 23 57 19 117 -20 283 -2 11 -20
79 -39 150 -31 119 -33 141 -31 255 3 160 19 211 104 326 127 172 173 284 178
435 3 96 -3 135 -32 217 -16 44 -36 58 -27 20 3 -13 -6 0 -20 27 -13 28 -31
56 -40 64 -9 7 -15 17 -12 21 10 16 -133 -22 -200 -53 -123 -56 -226 -145
-309 -265 l-39 -57 9 50 c19 118 1 227 -48 297 -30 43 -70 44 -170 8z m745 3
c-7 -2 -21 -2 -30 0 -10 3 -4 5 12 5 17 0 24 -2 18 -5z m-1586 -2955 c-3 -7
-5 -2 -5 12 0 14 2 19 5 13 2 -7 2 -19 0 -25z m10 -40 c-3 -8 -6 -5 -6 6 -1
11 2 17 5 13 3 -3 4 -12 1 -19z m17 -34 c3 -8 2 -12 -4 -9 -6 3 -10 10 -10 16
0 14 7 11 14 -7z"/>
<path d="M2777 3146 c-64 -53 -84 -124 -52 -185 35 -68 170 -85 223 -28 51 54
44 135 -14 187 -39 34 -57 35 -62 2 -2 -15 2 -22 13 -22 28 0 65 -50 65 -87 0
-74 -89 -110 -171 -67 -68 35 -45 131 37 153 24 6 29 13 29 37 0 38 -29 42
-68 10z"/>
<path d="M2590 2616 c-90 -25 -122 -56 -124 -117 -1 -35 4 -46 36 -75 21 -19
46 -34 55 -35 10 0 27 -2 38 -4 58 -12 127 48 127 109 0 57 -45 137 -75 135
-7 0 -32 -6 -57 -13z m58 -63 c59 -50 45 -126 -25 -139 -43 -8 -95 14 -119 51
-22 33 -5 77 39 99 46 22 68 20 105 -11z"/>
</g>
</svg>
