<?xml version="1.0" standalone="no"?>
<!DOCTYPE svg PUBLIC "-//W3C//DTD SVG 20010904//EN"
 "http://www.w3.org/TR/2001/REC-SVG-20010904/DTD/svg10.dtd">
<svg version="1.0" xmlns="http://www.w3.org/2000/svg"
 width="514.000000pt" height="514.000000pt" viewBox="0 0 514.000000 514.000000"
 preserveAspectRatio="xMidYMid meet">
<metadata>
Created by potrace 1.11, written by Peter Selinger 2001-2013
</metadata>
<g transform="translate(0.000000,514.000000) scale(0.100000,-0.100000)"
fill="#000000" stroke="none">
<path d="M2485 4553 c-16 -9 -43 -26 -60 -39 -16 -12 -105 -59 -197 -103 -92
-44 -258 -134 -370 -199 -384 -224 -366 -214 -1198 -660 -118 -63 -219 -118
-225 -122 -5 -4 -26 -17 -45 -27 -135 -76 -192 -104 -241 -122 -80 -30 -139
-83 -139 -125 0 -20 8 -40 20 -51 37 -34 141 -3 204 60 83 83 510 370 676 455
58 29 132 67 165 85 33 18 114 61 180 95 137 72 245 131 500 275 277 157 294
166 385 211 47 23 150 68 230 100 151 61 200 94 200 136 0 47 -33 59 -85 31z"/>
<path d="M2580 4543 c0 -21 114 -103 235 -168 159 -85 206 -112 347 -201 177
-112 385 -236 511 -305 50 -28 112 -63 137 -77 25 -13 178 -92 340 -175 334
-170 504 -266 657 -369 126 -84 218 -129 279 -136 82 -9 57 29 -90 137 -201
149 -429 285 -1011 606 -211 116 -371 206 -590 330 -156 88 -377 190 -520 240
-44 15 -127 49 -184 76 -111 53 -111 52 -111 42z"/>
<path d="M2473 3717 c-10 -17 -43 -31 -65 -28 -32 4 -115 -48 -166 -104 -153
-167 -197 -367 -147 -658 10 -53 51 -134 79 -152 51 -34 52 4 2 117 -69 159
-79 333 -25 458 17 39 26 49 38 44 9 -4 39 -7 68 -8 40 -1 57 -6 73 -23 11
-13 24 -23 29 -23 9 0 30 21 67 68 14 17 31 32 38 32 7 0 20 -18 30 -39 19
-44 45 -58 76 -41 11 6 29 8 40 5 16 -5 17 -10 8 -38 -18 -58 -29 -102 -33
-130 -3 -16 -7 -32 -9 -36 -15 -23 -23 -233 -13 -292 7 -38 36 -89 54 -96 14
-6 36 14 28 27 -1 3 -6 25 -9 50 -4 25 -10 62 -15 83 -10 40 -7 207 4 267 11
64 55 168 73 173 9 3 24 8 33 12 13 5 20 -2 29 -32 24 -73 44 -79 108 -33 49
35 77 38 92 10 6 -12 21 -20 36 -20 19 0 26 6 31 30 7 36 10 37 47 5 16 -14
34 -25 39 -25 17 0 -2 -130 -34 -224 -16 -49 -48 -125 -69 -168 -43 -85 -33
-93 29 -23 63 72 107 196 117 333 14 192 4 285 -44 378 -43 84 -95 89 -228 22
-97 -48 -157 -103 -210 -190 -19 -32 -37 -58 -39 -58 -1 0 -3 33 -2 73 0 64
-4 81 -38 147 -20 41 -46 85 -58 98 -23 25 -52 29 -64 9z"/>
<path d="M574 3356 c-3 -8 -4 -73 -1 -144 2 -82 -1 -160 -10 -213 -7 -46 -15
-124 -18 -174 -2 -49 -7 -133 -11 -185 -8 -101 -16 -849 -16 -1288 1 -207 5
-295 21 -410 11 -81 21 -170 22 -199 2 -35 7 -54 17 -58 13 -5 14 16 6 152 -5
87 -8 277 -6 423 2 235 5 304 17 440 7 67 2 533 -7 735 -2 31 13 417 17 434 1
9 6 43 10 76 3 32 8 62 11 66 7 12 7 154 -1 199 -12 70 -12 73 -24 118 -12 45
-18 51 -27 28z"/>
<path d="M4560 3346 c-17 -46 -21 -162 -23 -691 -2 -528 9 -924 26 -941 10
-10 23 129 33 351 14 321 4 1279 -14 1297 -8 8 -14 5 -22 -16z"/>
<path d="M2976 2704 c-10 -26 -7 -32 28 -71 49 -55 73 -106 95 -210 11 -51 25
-102 32 -114 11 -21 12 -21 21 -4 23 40 -20 213 -83 336 -35 70 -79 99 -93 63z"/>
<path d="M2083 2659 c-41 -26 -91 -103 -132 -201 -80 -197 -50 -272 152 -373
62 -31 116 -60 120 -64 4 -5 3 -20 -4 -34 -10 -21 -9 -32 5 -61 17 -35 20 -85
10 -147 l-6 -37 -87 24 c-47 14 -99 27 -116 30 -16 2 -37 7 -45 9 -8 3 -33 7
-55 10 -84 10 -127 19 -375 77 -244 57 -396 80 -437 64 -17 -7 -17 -8 2 -22
23 -17 72 -31 140 -39 93 -12 236 -36 333 -56 54 -11 108 -22 122 -24 263 -46
537 -118 632 -166 21 -11 54 -34 74 -51 l37 -33 -16 31 c-19 36 -60 73 -115
104 l-39 22 0 116 1 117 -38 58 c-39 61 -94 107 -164 139 -24 11 -64 39 -89
63 -46 44 -46 44 -40 99 8 84 66 186 154 273 65 66 70 74 53 83 -27 14 -41 12
-77 -11z"/>
<path d="M2501 2536 c-17 -20 -17 -111 -1 -130 15 -19 56 -21 66 -5 4 7 9 35
11 64 3 39 0 56 -12 69 -20 20 -49 21 -64 2z"/>
<path d="M2222 2308 c-8 -8 -9 -15 -1 -25 14 -16 55 -17 65 -2 15 24 -42 49
-64 27z"/>
<path d="M2889 2232 c10 -20 85 -62 109 -62 25 0 10 16 -41 45 -69 39 -82 43
-68 17z"/>
<path d="M2761 2213 c26 -32 54 -52 74 -52 16 0 13 6 -19 34 -43 38 -80 50
-55 18z"/>
<path d="M3240 2220 c0 -27 32 -82 95 -160 188 -236 270 -414 278 -604 8 -179
-43 -311 -133 -344 -24 -9 -107 -8 -200 2 -25 3 -49 5 -55 6 -5 0 -3 5 5 10
24 15 -26 28 -96 26 -50 -2 -71 -9 -122 -40 -59 -36 -83 -56 -65 -56 5 0 35
16 67 35 l59 35 91 -31 c50 -17 92 -32 94 -34 2 -2 -22 -22 -53 -45 -50 -37
-342 -190 -362 -190 -5 0 -25 -11 -45 -25 -50 -34 -80 -37 -83 -8 -3 42 -13
34 -11 -9 2 -74 44 -71 190 15 50 30 150 86 221 126 72 39 137 77 146 83 22
18 41 57 36 73 -5 10 2 10 38 -1 42 -12 101 -18 157 -15 34 1 93 52 118 101
10 20 25 69 34 110 43 207 -35 482 -210 745 -70 106 -194 230 -194 195z m-103
-1086 c-3 -3 -12 -4 -19 -1 -8 3 -5 6 6 6 11 1 17 -2 13 -5z"/>
<path d="M2592 2198 c19 -29 62 -50 91 -46 19 4 17 7 -18 24 -22 10 -46 25
-53 32 -22 21 -36 14 -20 -10z"/>
<path d="M1044 1922 c-24 -16 -35 -54 -29 -95 18 -109 178 -457 286 -623 50
-76 115 -154 130 -154 10 0 -60 133 -111 210 -71 107 -151 258 -180 340 -38
101 -70 237 -70 290 0 40 -5 46 -26 32z"/>
<path d="M3130 1768 c0 -7 16 -42 35 -80 31 -58 85 -229 85 -265 0 -9 -18 -13
-58 -13 -158 0 -397 -82 -447 -153 -13 -18 -24 -21 -73 -20 -64 2 -94 -9 -75
-28 6 -6 29 -13 50 -15 72 -5 78 -9 96 -46 23 -49 37 -49 27 -1 -13 54 9 96
66 133 90 56 147 72 291 79 132 6 156 12 136 32 -7 7 -8 21 -4 33 13 38 3 132
-20 193 -30 79 -109 189 -109 151z"/>
<path d="M4550 1606 c-16 -76 -18 -862 -3 -896 9 -18 12 -20 12 -7 1 9 6 17
12 17 6 0 9 -7 5 -15 -3 -8 -1 -15 4 -15 6 0 10 10 11 23 0 12 3 31 5 42 12
50 3 873 -9 893 -15 23 -26 12 -37 -42z"/>
<path d="M2427 1533 c-15 -15 -4 -51 47 -157 30 -61 70 -156 90 -211 20 -55
46 -122 57 -150 21 -53 79 -148 86 -142 8 9 -22 105 -65 207 -25 58 -66 167
-93 242 -51 145 -63 173 -87 201 -16 18 -25 21 -35 10z"/>
<path d="M2827 1212 c-25 -27 -32 -76 -13 -91 13 -11 14 -8 9 22 -4 28 -1 37
21 54 14 12 26 24 26 27 0 13 -28 5 -43 -12z"/>
<path d="M2890 1170 c-11 -11 -20 -29 -20 -41 0 -27 18 -59 32 -59 9 0 9 3 0
12 -22 22 -14 65 16 87 21 16 23 20 10 21 -10 0 -27 -9 -38 -20z"/>
<path d="M3120 1026 c-124 -55 -228 -108 -315 -160 -54 -32 -65 -42 -48 -44
12 -2 41 9 65 25 79 50 102 63 208 114 179 87 191 92 196 101 9 14 -8 8 -106
-36z"/>
<path d="M1486 992 c-11 -18 237 -84 459 -123 66 -11 199 -39 295 -60 253 -58
299 -67 358 -73 123 -13 3 46 -143 69 -55 9 -147 27 -205 40 -58 13 -118 26
-135 29 -16 3 -86 19 -155 36 -69 17 -188 42 -265 55 -77 13 -154 27 -171 31
-18 3 -34 2 -38 -4z"/>
<path d="M2206 643 c-1 -2 -337 -5 -747 -7 -676 -4 -815 -9 -783 -29 40 -25
334 -30 1724 -31 1392 -1 2088 9 2108 29 3 3 -24 5 -59 6 -35 0 -98 3 -139 5
-149 9 -293 12 -715 19 -426 7 -1384 12 -1389 8z"/>
</g>
</svg>
